# xmcd
#
# Track frame offsets:
#	150
#	15586
#	36943
#	51532
#	66151
#	83497
#	98861
#	114765
#	133329
#	147156
#	160507
#	173181
#	186318
#
# Disc length: 2758 seconds
#
# Revision: 0
# Processed by: cddbd v1.5.2PL0 Copyright (c) Steve Scherf et al.
# Submitted via: EasyCDDAExtractor 16.0.8.1
#
DISCID=ac0ac40d
DTITLE=Alison Krauss - New Favorite
DYEAR=2001
DGENRE=Country
TTITLE0=Let Me Touch You for Awhile
TTITLE1=The Boy Who Wouldn't Hoe Corn
TTITLE2=The Lucky One
TTITLE3=Choctaw Hayride
TTITLE4=Crazy Faith
TTITLE5=Momma Cried
TTITLE6=I'm Gone
TTITLE7=Daylight
TTITLE8=Bright Sunny South
TTITLE9=Stars
TTITLE10=It All Comes Down to You
TTITLE11=Take Me for Longing
TTITLE12=New Favorite
EXTD=
EXTT0=
EXTT1=
EXTT2=
EXTT3=
EXTT4=
EXTT5=
EXTT6=
EXTT7=
EXTT8=
EXTT9=
EXTT10=
EXTT11=
EXTT12=
PLAYORDER=
